<svg xmlns="http://www.w3.org/2000/svg" width="200" height="170.301" xmlns:v="https://vecta.io/nano"><path fill="#c28d84" d="M55.022 157.995a97.15 97.15 0 0 1-17.584-13.79 86.7 86.7 0 0 1-7.453-8.409 55.44 55.44 0 0 1-6.2-9.593l-.839-1.677 1.345-1.354a113.13 113.13 0 0 1 16.062-12.282 102.86 102.86 0 0 1 17.885-9.254c6.306-2.517 12.946-4.101 19.709-4.7a49.8 49.8 0 0 1 20.266 2.513 48.54 48.54 0 0 1 9.277 4.382c1.522.927 2.956 1.9 4.388 2.853l3.9 2.559a151.38 151.38 0 0 0 16.951 9.5c5.725 2.777 11.806 4.751 18.07 5.867a32.64 32.64 0 0 0 9.115.234c2.589-.33 5.123-1.005 7.534-2.006a23.92 23.92 0 0 0 8.983-7.955 29.58 29.58 0 0 0 4.308-17.841c-.294-6.777-2.9-9.454-5.058-10.77-.519-.272-1.116-.358-1.691-.242-1.557.168-3.9.507-5.476-1.734a3.94 3.94 0 0 1-.11-4.4 3.81 3.81 0 0 1 3.859-1.832c5.439.81 8.469 6.528 9.835 18.534a38.87 38.87 0 0 1-3.528 20.509 33.54 33.54 0 0 1-3.6 5.925l-.007-.008c-.647 1.051-4.69 6.388-4.69 6.388a92.32 92.32 0 0 1-29.728 28.611 87.57 87.57 0 0 1-42.783 12.261l-1.316.014c-14.687-.146-29.039-4.408-41.424-12.303zm23.244-56.933a61.95 61.95 0 0 0-18.429 4.609c-11.241 4.783-21.536 11.536-30.4 19.942 3.106 5.543 6.993 10.611 11.541 15.049a89.56 89.56 0 0 0 16.605 13.157c12.586 7.749 26.413 11.71 40.071 11.365a82.19 82.19 0 0 0 40.167-11.7 87.65 87.65 0 0 0 21.317-18.209 141.06 141.06 0 0 1-7.931 3.321 135.16 135.16 0 0 1-13.5 4.42 118.79 118.79 0 0 1-28.081 4.271 91.66 91.66 0 0 1-14.254-.853 69.08 69.08 0 0 1-13.864-3.551c-4.454-1.777-8.697-4.042-12.651-6.756-4.146-2.617-10.2-9.666-10.2-9.666 7.107 5.962 7.923 6 11.35 8.027a56.25 56.25 0 0 0 12.629 5.079c4.319 1.39 8.759 2.372 13.261 2.933a86.3 86.3 0 0 0 13.585.486 113.81 113.81 0 0 0 26.867-4.743 147 147 0 0 0 20.634-7.879 46.47 46.47 0 0 1-7.049-.8c-6.647-1.419-13.076-3.713-19.12-6.823-5.975-2.958-11.754-6.299-17.3-10-1.206-.764-2.4-1.6-3.6-2.419-1.551-1.073-3.021-2.088-4.536-3a44.61 44.61 0 0 0-8.521-3.991 44.56 44.56 0 0 0-14.766-2.419q-1.9.003-3.825.15zm75.679 16.988c1.949.323 3.852.758 5.75 1.242-.148.022-.3.052-.449.066-.668.079-1.353.125-2.051.147-1.089-.462-2.183-.918-3.25-1.454zm-17.363-4.977l-6.99-2.117c-2.235-1.191-4.5-2.471-6.845-3.882l2.022.64 12.2 4.161c4.033 1.47 8.085 2.933 12.069 4.58-4.186-1.007-8.325-2.183-12.456-3.381zm22.51.844c-1.312-.243-2.548-.791-3.609-1.6a8.54 8.54 0 0 1 3.946.006 8.68 8.68 0 0 1 3.617 1.6c-.594.151-1.205.226-1.818.224a11.27 11.27 0 0 1-2.136-.229zm34.652-2.535a21.11 21.11 0 0 1-6.123-1.279 21.38 21.38 0 0 1 6.248-.353 21.37 21.37 0 0 1 6.131 1.287 18.1 18.1 0 0 1-4.079.423c-.728.001-1.453-.031-2.177-.077zM0 111.037a22.9 22.9 0 0 1 6.322-1.491 22.95 22.95 0 0 1 6.5.139 22.72 22.72 0 0 1-6.329 1.493 34.21 34.21 0 0 1-3.057.156A18.64 18.64 0 0 1 0 111.038zm142.059-.735a32.66 32.66 0 0 1-7.394-2.411 32.66 32.66 0 0 1 7.74.809c2.553.51 5.037 1.319 7.4 2.412-.27.009-.538.014-.806.014a35.08 35.08 0 0 1-6.94-.823zm-124.115-1.156a91.26 91.26 0 0 1 12.739-2.161c2.088-.2 4.184-.382 6.285-.478-.852.544-1.661 1.1-2.477 1.653l-3.638.449c-3.378.336-6.761.595-10.173.595a59.67 59.67 0 0 1-2.736-.058zm151.2-.533a89.13 89.13 0 0 1-12.74-2.162c4.31-.131 8.624.049 12.909.537.734.08 1.463.189 2.19.286a28.02 28.02 0 0 1-.551 1.484l-1.804-.145zm-48.8-3.03l-1.662-1.036c-.668-.412-1.315-.854-1.962-1.287a123.6 123.6 0 0 1 13.533 3.7c-3.33-.288-6.623-.79-9.901-1.377zm18.046-.39c-4.292-.3-8.57-.735-12.843-1.161q-4.663-.508-9.328-1.095l-1.272-.839-4.616-3a54.38 54.38 0 0 0-10.292-4.852 52.05 52.05 0 0 0-10.806-2.536c-3.021-2.558-5.99-5.188-8.953-7.836l-9.446-8.764c-3.109-2.977-6.2-5.969-9.167-9.092 3.426 2.623 6.719 5.381 10 8.158s6.5 5.624 9.7 8.483l8.784 8.132-1.125-1.22c-3.487-3.816-6.742-7.837-9.748-12.042 3.871 3.424 7.531 7.079 10.96 10.945l1.1 1.25c-2.441-3.153-4.807-6.366-7.167-9.586l-7.426-10.541-7.072-10.791c2.8 3.271 5.456 6.658 8.087 10.056s5.19 6.852 7.733 10.32l6.9 9.777-.845-1.426a130.25 130.25 0 0 1-7.028-13.8c3.072 4.155 5.893 8.49 8.446 12.982l.809 1.447c-1.735-3.595-3.381-7.227-5.021-10.858l-5.065-11.856c-1.632-3.977-3.234-7.969-4.676-12.034 2.059 3.793 3.948 7.652 5.816 11.526 1.889 3.859 3.652 7.777 5.417 11.7l4.72 11-.537-1.565a129.87 129.87 0 0 1-4-14.967 129.87 129.87 0 0 1 5.557 14.459l.492 1.581c-.948-3.874-1.808-7.771-2.653-11.667L91.333 62.83c-.75-4.234-1.507-8.461-2.065-12.738 1.22 4.132 2.272 8.306 3.293 12.48 1.037 4.169 1.955 8.374 2.867 12.571l2.323 11.731-.191-1.646c-.576-5.135-.846-10.299-.809-15.466a128.94 128.94 0 0 1 2.433 15.3l.155 1.647c-.125-3.979-.155-7.955-.169-11.932l.191-12.894.625-12.887c.338 4.295.5 8.594.632 12.887s.169 8.594.191 12.894l-.169 11.932.155-1.647a130.73 130.73 0 0 1 2.425-15.3 128.91 128.91 0 0 1-.8 15.466l-.192 1.646c.707-3.925 1.507-7.828 2.323-11.731l2.867-12.571c1.022-4.175 2.066-8.349 3.294-12.48-.566 4.277-1.3 8.512-2.066 12.738s-1.625 8.446-2.5 12.651l-2.647 11.667.493-1.581a129.3 129.3 0 0 1 5.557-14.459 130.2 130.2 0 0 1-4.007 14.967l-.529 1.565c1.515-3.69 3.109-7.344 4.712-11l5.417-11.7 5.815-11.526c-1.434 4.065-3.036 8.058-4.668 12.034-1.609 3.984-3.337 7.923-5.065 11.856l-5.02 10.858.808-1.447a129.16 129.16 0 0 1 8.447-12.982 130.7 130.7 0 0 1-7.027 13.8l-.846 1.426c2.242-3.3 4.565-6.543 6.9-9.777l7.733-10.32c2.646-3.387 5.286-6.785 8.08-10.056-2.25 3.668-4.646 7.24-7.064 10.791s-4.918 7.057-7.424 10.541l-7.168 9.586 1.1-1.25c3.429-3.866 7.09-7.521 10.961-10.945a131.01 131.01 0 0 1-9.748 12.042l-1.125 1.22c2.882-2.758 5.83-5.448 8.778-8.132l9.71-8.483 10-8.158c-2.962 3.123-6.05 6.115-9.16 9.092s-6.27 5.876-9.454 8.764l-9 7.888 1.331-.993a128.93 128.93 0 0 1 13-8.431 130.08 130.08 0 0 1-12.035 9.755l-1.352.956c3.4-2.1 6.829-4.117 10.277-6.124l11.262-6.285c3.786-2.036 7.586-4.043 11.474-5.9-3.549 2.439-7.2 4.727-10.849 6.989-3.646 2.279-7.358 4.449-11.071 6.609l-10.446 5.836 1.514-.689a129.69 129.69 0 0 1 14.46-5.543 129.5 129.5 0 0 1-13.8 7.035l-1.521.661c3.756-1.353 7.535-2.609 11.327-3.859l12.313-3.8c4.131-1.2 8.27-2.382 12.46-3.39-3.985 1.648-8.021 3.125-12.07 4.581s-8.123 2.815-12.2 4.168l-11.432 3.536 1.625-.368c5.048-1.106 10.157-1.914 15.3-2.418a128.86 128.86 0 0 1-14.959 4.021l-1.625.323c3.948-.536 7.917-.985 11.878-1.418l12.843-1.155c4.287-.322 8.572-.609 12.887-.727-4.242.785-8.5 1.4-12.762 1.971-4.255.6-8.527 1.072-12.8 1.543l-11.915 1.079 1.661-.021a129.97 129.97 0 0 1 15.467.822 131.11 131.11 0 0 1-15.467.816c-.56 0-1.11-.014-1.661-.021 3.977.3 7.946.684 11.915 1.087l12.8 1.538c4.263.58 8.52 1.182 12.762 1.969-4.323-.11-8.612-.405-12.899-.722zm18.319-4.669a8.66 8.66 0 0 1 3.866-.824 8.72 8.72 0 0 1 3.867.824 8.69 8.69 0 0 1-3.867.815 8.64 8.64 0 0 1-3.858-.81zm-21.274 0a32.52 32.52 0 0 1 7.733-.824 32.98 32.98 0 0 1 7.734.824 32.92 32.92 0 0 1-7.734.815 32.48 32.48 0 0 1-7.725-.81zm-99.9 0a8.76 8.76 0 0 1 3.867-.824 8.66 8.66 0 0 1 3.875.824 8.65 8.65 0 0 1-3.875.815c-1.332.028-2.652-.249-3.86-.81zm95.4 0zm-82.223-5.395c3.309.088 6.6.293 9.888.522-.7.249-1.4.47-2.109.742-2.594-.38-5.188-.786-7.777-1.264zm107.694-.536a88.58 88.58 0 0 1 12.74-2.161c1.124-.111 2.249-.184 3.381-.272a28.86 28.86 0 0 1 .206 1.448l-3.418.447c-3.378.338-6.761.6-10.174.6q-1.362-.002-2.733-.06zm-125.725-.538c-4.293-.411-8.551-1.134-12.739-2.161 4.31-.131 8.624.048 12.909.536a88.6 88.6 0 0 1 12.732 2.162q-1.369.06-2.732.059c-3.409.001-6.796-.259-10.168-.594zm103.981-.906a32.65 32.65 0 0 1 7.394-2.4 32.69 32.69 0 0 1 7.741-.809 33.08 33.08 0 0 1-7.4 2.4 34.31 34.31 0 0 1-6.885.826c-.277.002-.562-.005-.847-.016zm-77.07-.809a33.06 33.06 0 0 1-7.395-2.4 32.65 32.65 0 0 1 7.733.809c2.554.5 5.039 1.306 7.4 2.4-.286.011-.57.018-.853.018a34.28 34.28 0 0 1-6.882-.825zm5.425-3.177c-4.043-1.456-8.079-2.933-12.062-4.578 4.19 1.007 8.329 2.183 12.453 3.388 4.036 1.155 8.027 2.428 12.019 3.705-1.228.141-2.455.279-3.7.485l-8.707-2.998zm23.061 2.238a124.41 124.41 0 0 1-11.114-9.063 128 128 0 0 1 13 8.432l1.271.941q-1.562-.197-3.154-.308zm101.1-.044a22.99 22.99 0 0 1 6.321-1.486 22.99 22.99 0 0 1 6.5.141c-2.026.792-4.154 1.292-6.321 1.484-1.02.094-2.042.163-3.071.163a18.39 18.39 0 0 1-3.426-.3zm-180.859.139a22.92 22.92 0 0 1-6.322-1.484 22.92 22.92 0 0 1 6.491-.141c2.169.194 4.3.694 6.329 1.486a18.33 18.33 0 0 1-3.428.3c-1.026.003-2.049-.065-3.067-.159zm65.409-3.559c3.153.956 6.22 2.1 9.247 3.338-.977.014-1.955.06-2.94.125-2.128-1.079-4.238-2.218-6.304-3.461zm10.784 3.338l-5.256-2.94-11.063-6.609c-3.661-2.263-7.3-4.55-10.857-6.99 3.9 1.859 7.7 3.866 11.482 5.9 3.793 2.021 7.528 4.153 11.261 6.285l7.469 4.455c-1.003-.062-2.01-.091-3.033-.099zm72.967-2.55a8.67 8.67 0 0 1 3.609-1.6 8.66 8.66 0 0 1 3.954 0c-1.068.802-2.305 1.349-3.617 1.6-.698.144-1.409.221-2.122.23a7.09 7.09 0 0 1-1.821-.226zm-114.919 0c-1.309-.251-2.544-.798-3.609-1.6a8.66 8.66 0 0 1 3.955 0 8.73 8.73 0 0 1 3.608 1.6c-.597.155-1.211.233-1.828.23-.713-.008-1.424-.084-2.123-.226zm98.549-6.515a32.82 32.82 0 0 1 7.394-2.4 32.97 32.97 0 0 1-6.733 3.889 32.76 32.76 0 0 1-7.4 2.4 32.34 32.34 0 0 1 6.742-3.886zm-78.893 1.492a33.22 33.22 0 0 1-6.733-3.889 32.89 32.89 0 0 1 7.4 2.4 32.55 32.55 0 0 1 6.733 3.9 32.96 32.96 0 0 1-7.397-2.408zm102.452-4.344c-.163.545-.276 1.103-.338 1.668a73.07 73.07 0 0 1-8.388 1.964 76.74 76.74 0 0 1 8.731-3.629zm-129.128.428a90.76 90.76 0 0 1-12.012-4.765 91.07 91.07 0 0 1 12.513 3.206 90.01 90.01 0 0 1 12.011 4.763 89.56 89.56 0 0 1-12.509-3.201zm100.908-5.311a33.09 33.09 0 0 1 6.733-3.882c-1.711 1.957-3.648 3.704-5.771 5.205a32.51 32.51 0 0 1-6.74 3.89 32.5 32.5 0 0 1 5.781-5.21zm-69.865 1.323a32.96 32.96 0 0 1-5.778-5.205 32.91 32.91 0 0 1 6.741 3.882 32.48 32.48 0 0 1 5.778 5.213 32.5 32.5 0 0 1-6.738-3.886zm87.228 1.649a8.61 8.61 0 0 1 3.2-2.315c1.208-.569 2.531-.854 3.866-.832a8.65 8.65 0 0 1-3.2 2.323c-1.105.515-2.303.798-3.522.832a3.93 3.93 0 0 1-.342-.004zm-107.495-.824c-1.232-.519-2.328-1.314-3.205-2.323a8.72 8.72 0 0 1 3.868.832 8.62 8.62 0 0 1 3.2 2.315 6.67 6.67 0 0 1-.345.008c-1.216-.031-2.412-.312-3.515-.826zm83.964-8.739a32.79 32.79 0 0 1 5.785-5.2c-1.272 2.27-2.807 4.382-4.572 6.293a32.38 32.38 0 0 1-5.785 5.2 32.88 32.88 0 0 1 4.575-6.289zm-57.785 1.095a33.15 33.15 0 0 1-4.566-6.293 32.93 32.93 0 0 1 5.785 5.2 32.54 32.54 0 0 1 4.566 6.3c-2.127-1.499-4.068-3.246-5.782-5.204zm118.747 1.684a22.81 22.81 0 0 1 6.382-1.214 22.62 22.62 0 0 1-5.874 2.765 22.84 22.84 0 0 1-6.38 1.22 22.42 22.42 0 0 1 5.874-2.768zm-179 1.551a22.79 22.79 0 0 1-5.881-2.765 22.89 22.89 0 0 1 6.389 1.214 22.62 22.62 0 0 1 5.873 2.771 22.85 22.85 0 0 1-6.376-1.217zm149.631-7.212a90.05 90.05 0 0 1 11.57-5.734 89.53 89.53 0 0 1-10.754 7.152c-3.713 2.188-7.58 4.105-11.571 5.734a89.32 89.32 0 0 1 10.755-7.149zM39.3 66.42a89.52 89.52 0 0 1-10.753-7.152 89.95 89.95 0 0 1 11.57 5.734 89.38 89.38 0 0 1 10.755 7.152c-3.99-1.627-7.856-3.542-11.567-5.731zm81.575-3.7a32.53 32.53 0 0 1 4.573-6.284 32.73 32.73 0 0 1-3.161 7.106 32.33 32.33 0 0 1-4.573 6.287 32.63 32.63 0 0 1 3.166-7.109zm-43.179.822c-1.327-2.237-2.388-4.622-3.161-7.106a32.62 32.62 0 0 1 4.579 6.284 32.8 32.8 0 0 1 3.161 7.109 32.34 32.34 0 0 1-4.574-6.287zm70.834.7a8.68 8.68 0 0 1 3.61-1.607 8.74 8.74 0 0 1-2.646 2.932 8.64 8.64 0 0 1-3.609 1.609 8.69 8.69 0 0 1 2.65-2.931zm-98.034 1.324a8.65 8.65 0 0 1-2.646-2.932 8.73 8.73 0 0 1 3.608 1.607 8.69 8.69 0 0 1 2.647 2.934 8.6 8.6 0 0 1-3.604-1.606zm62.064-6.363a32.57 32.57 0 0 1 3.168-7.1 33.01 33.01 0 0 1-1.616 7.608 32.2 32.2 0 0 1-3.169 7.1 32.6 32.6 0 0 1 1.623-7.605zm-26.69.507a33.39 33.39 0 0 1-1.61-7.608 32.9 32.9 0 0 1 3.168 7.1 32.45 32.45 0 0 1 1.61 7.608c-1.332-2.232-2.394-4.615-3.165-7.097zm17.825-2.215c.235-2.592.778-5.146 1.617-7.609.312 2.583.314 5.194.007 7.778-.235 2.592-.781 5.146-1.625 7.608a32.35 32.35 0 0 1 .007-7.774zm-9.027.169a33.21 33.21 0 0 1 0-7.778c.843 2.463 1.388 5.017 1.625 7.609a32.81 32.81 0 0 1-.007 7.777 32.82 32.82 0 0 1-1.613-7.605zm56.507-4.336a90.93 90.93 0 0 1 10.13-8.012 91.04 91.04 0 0 1-9.035 9.233c-3.177 2.911-6.559 5.589-10.122 8.012a90.19 90.19 0 0 1 9.033-9.232zM47.71 54.55a90.05 90.05 0 0 1-9.028-9.233 90.08 90.08 0 0 1 10.122 8.012c3.23 2.856 6.25 5.942 9.035 9.233a90.13 90.13 0 0 1-10.123-8.009zm92.218.4a8.65 8.65 0 0 1 3.19-2.322c-.388 1.276-1.065 2.446-1.978 3.418-.874 1.012-1.969 1.809-3.2 2.33a8.66 8.66 0 0 1 1.995-3.428zm-81.082 1.1a8.71 8.71 0 0 1-1.985-3.418c1.232.515 2.328 1.31 3.2 2.322a8.59 8.59 0 0 1 1.978 3.426c-1.226-.525-2.316-1.324-3.186-2.336zm122.233-3.284a23.03 23.03 0 0 1 5.992-2.515 23 23 0 0 1-5.168 3.933 23.04 23.04 0 0 1-5.99 2.515 22.99 22.99 0 0 1 5.172-3.939zm-163 1.418a23.2 23.2 0 0 1-5.175-3.933 23.04 23.04 0 0 1 5.991 2.515 22.86 22.86 0 0 1 5.176 3.933c-2.103-.554-4.116-1.403-5.981-2.521zm122.168-10.456a89.78 89.78 0 0 1 8.233-9.945 90.61 90.61 0 0 1-6.911 10.909 89.86 89.86 0 0 1-8.24 9.946 89.23 89.23 0 0 1 6.93-10.916zm-81.841.964c-2.562-3.467-4.874-7.113-6.917-10.909 2.983 3.111 5.737 6.435 8.24 9.945 2.567 3.464 4.879 7.111 6.917 10.91a89.21 89.21 0 0 1-8.228-9.953zm71.167 2.956c.645-1.168 1.547-2.173 2.639-2.94a8.69 8.69 0 0 1-1.221 3.757 8.62 8.62 0 0 1-2.646 2.941 8.6 8.6 0 0 1 1.239-3.764zm-60.587.816a8.75 8.75 0 0 1-1.228-3.757 8.73 8.73 0 0 1 2.646 2.94 8.61 8.61 0 0 1 1.221 3.758c-1.093-.765-1.993-1.774-2.627-2.947zm58.565-11.865a91.89 91.89 0 0 1 5.99-11.445 90.06 90.06 0 0 1-4.49 12.114c-1.723 3.953-3.725 7.778-5.991 11.447a90.31 90.31 0 0 1 4.503-12.122zm-56.625.669a90.14 90.14 0 0 1-4.5-12.114 90.63 90.63 0 0 1 5.991 11.445 89.1 89.1 0 0 1 4.5 12.116c-2.263-3.67-4.261-7.498-5.979-11.453zm47 5.387a8.71 8.71 0 0 1 1.978-3.426 8.7 8.7 0 0 1-.419 3.926 8.56 8.56 0 0 1-1.97 3.427 8.6 8.6 0 0 1 .424-3.934zm-37.438.5c-.439-1.259-.582-2.603-.418-3.926a8.58 8.58 0 0 1 1.969 3.426 8.58 8.58 0 0 1 .419 3.927 8.58 8.58 0 0 1-1.957-3.434zm33.167-10.884a90.8 90.8 0 0 1 3.485-12.445 90.88 90.88 0 0 1-1.883 12.784 90.3 90.3 0 0 1-3.477 12.438 89.22 89.22 0 0 1 1.893-12.783zm-28.94.339c-.931-4.211-1.56-8.483-1.882-12.784 1.454 4.06 2.616 8.219 3.477 12.445a88.53 88.53 0 0 1 1.883 12.776 88.22 88.22 0 0 1-3.464-12.444zm20.789 7.578a8.66 8.66 0 0 1 1.221-3.757c.434 1.26.574 2.603.411 3.926a8.71 8.71 0 0 1-1.22 3.765c-.438-1.264-.575-2.614-.399-3.94zm-12.666.169c-.163-1.323-.022-2.666.412-3.926a8.66 8.66 0 0 1 1.213 3.757 8.59 8.59 0 0 1-.4 3.934 8.7 8.7 0 0 1-1.212-3.772zm6.329-9.413a91.49 91.49 0 0 1 .816-12.893 90.2 90.2 0 0 1 .823 12.893 90.16 90.16 0 0 1-.823 12.887 89.15 89.15 0 0 1-.803-12.894zm70.2 6.007a23 23 0 0 1 5.343-3.7 23.03 23.03 0 0 1-4.249 4.918 22.69 22.69 0 0 1-5.337 3.7 22.85 22.85 0 0 1 4.259-4.925zM29.498 38.165a23.22 23.22 0 0 1-4.242-4.918 22.81 22.81 0 0 1 5.336 3.7 22.83 22.83 0 0 1 4.242 4.918 22.98 22.98 0 0 1-5.319-3.707zm125.137-14.254c1.254-1.778 2.751-3.371 4.447-4.734a22.88 22.88 0 0 1-3.125 5.7 22.73 22.73 0 0 1-4.447 4.734 22.87 22.87 0 0 1 3.141-5.707zm-110.626.963a23.13 23.13 0 0 1-3.132-5.7 23.17 23.17 0 0 1 4.456 4.734c1.307 1.742 2.359 3.661 3.124 5.7a22.78 22.78 0 0 1-4.432-4.741zm93.5-10.65a23 23 0 0 1 3.367-5.55c-.332 2.15-.963 4.243-1.874 6.219-.856 2.001-1.99 3.872-3.367 5.558a22.87 22.87 0 0 1 1.895-6.234zm-76.553.669a22.86 22.86 0 0 1-1.875-6.219 23.03 23.03 0 0 1 3.367 5.55 22.85 22.85 0 0 1 1.875 6.227 23.2 23.2 0 0 1-3.35-5.565zm57.786-6.586a23.39 23.39 0 0 1 2.14-6.132 23.16 23.16 0 0 1-.536 6.477 22.8 22.8 0 0 1-2.14 6.131 22.9 22.9 0 0 1 .557-6.483zm-39.13.345a23.18 23.18 0 0 1-.543-6.477c1.001 1.932 1.724 3.997 2.146 6.132a22.89 22.89 0 0 1 .537 6.476 22.81 22.81 0 0 1-2.119-6.139zm19.547-2.2a23.09 23.09 0 0 1 .816-6.448 23.05 23.05 0 0 1 .823 6.448 22.78 22.78 0 0 1-.823 6.438 22.78 22.78 0 0 1-.795-6.442z"/></svg>